<svg width="64" height="64" viewBox="0 0 64 64" fill="none" xmlns="http://www.w3.org/2000/svg"><path d="M63.975 0H.025A.025.025 0 0 0 0 .025v63.95c0 .014.011.025.025.025h63.95a.025.025 0 0 0 .025-.025V.025A.025.025 0 0 0 63.975 0z" fill="#9FDBF8"/><path d="M29.656 13.252c.86-3.062 3.567-4.21 4.396.535.158 1.503.34 3.016-.14 4.274-1.439 3.65-4.706 3.581-4.953-.2-.14-1.68.183-3.18.697-4.609zm12 3.54c1.175-4.077 4.547-3.577 5.86 1.27.37 2.2.186 4.165-.279 6.01-1.72 2.995-5.845 1.502-5.964-1.035-.063-2.051-.101-4.106.383-6.245zm11.65 11.688c2.087-2.58 4.891-3.484 4.326 2.605-.324 1.292-.496 2.271-1.465 3.673-.972 1.69-4.741 3-4.326-2.204.03-1.523.703-2.814 1.465-4.074zm-16.362 1.56c-.628.017-1.236.37-1.811 1.178-.187.214-.413.467-.666.731a5.25 5.25 0 0 1 2.506-.642 5.254 5.254 0 0 1 4.041 1.905c-1.381-1.805-2.77-3.209-4.07-3.173zm-4.136 3.33c-.464.302-.961.542-1.477.654-4.123 1.529-8.4 9.837-.21 8.95.756-.114 2.255.026 4.104.339l.271-1.716a5.252 5.252 0 0 1-3.776-5.037 5.252 5.252 0 0 1 1.088-3.19zm8.462.18c.62.882.953 1.932.955 3.01a5.252 5.252 0 0 1-3.967 5.088l-.347 2.19c1.692.37 3.496.828 5.21 1.34 8.202 3.24 7.684-2.124 3.14-5.076-1.51-1.315-3.24-4.205-4.991-6.552z" fill="#000"/><path d="M21.401 20.538c-.643-.002-1.34.806-2.07 3-.203 1.379-.322 2.737.209 3.94.016.062.034.121.053.18 1.787-.738 3.182-1.987 4.198-3.73-.631-1.661-1.452-3.387-2.39-3.39zm2.55 7.577c-.512.576-1.068 1.014-1.68 1.316a2.326 2.326 0 0 0 1.68-1.316z" fill="#000" stroke="#000" stroke-width=".418"/><path d="M14.586 6.44l.195 1.831-3.506.433 1.535 12.78c1.902 9.835 11.096 8.577 12.394-.313l1.411-12.215-3.521-.436.203-1.828 4.547.564-1.603 13.99c-1.02 6.04-4.483 8.07-6.547 8.198-.838 8.311-7.37 8.583-8.542 11.694-2.644 7.74 3.766 13.554 12.289 12.68.54-.055 3.777-.209 6.978-1.638 3.169-1.415 5.408-2.965 5.897-11.901a3.684 3.684 0 0 1-1.726-.941 3.49 3.49 0 0 1-.924-1.465c-.18-.457-.309-.911-.175-1.937.123-.73.436-1.56 1.291-2.314.507-.44 1.176-.777 2.21-.85.942-.003 1.678.319 2.303.818.42.326.725.703.927 1.127.277.541.518 1.118.452 2.005-.03.871-.316 1.708-.929 2.377a3.467 3.467 0 0 1-2.388 1.245c-.25 8.966-2.825 13.448-13.858 14.507-10.75.994-15.872-6.824-13.35-13.99 1.141-3.54 8.245-4.355 8.48-11.416-3.976-.33-6.344-4.279-6.858-7.88l-1.74-14.563 4.555-.562z" fill="#000" stroke="#fff" stroke-width=".015"/></svg>