<svg width="64" height="64" viewBox="0 0 64 64" fill="none" xmlns="http://www.w3.org/2000/svg">
<path d="M63.9746 0H0.0253669C0.0113571 0 0 0.01136 0 0.0253697V63.9746C0 63.9886 0.0113571 64 0.0253669 64H63.9746C63.9886 64 64 63.9886 64 63.9746V0.0253697C64 0.01136 63.9886 0 63.9746 0Z" fill="#9FDBF8"/>
<path d="M29.6564 13.2523C30.5154 10.1899 33.2226 9.0416 34.0516 13.7866C34.2103 15.29 34.3929 16.8026 33.9121 18.0611C32.4731 21.7105 29.2058 21.642 28.9587 17.8608C28.8181 16.1817 29.1419 14.6805 29.6564 13.2523V13.2523Z" fill="black"/>
<path d="M41.6563 16.7921C42.831 12.7153 46.2028 13.2155 47.5165 18.0611C47.8868 20.2619 47.7023 22.2266 47.2375 24.0722C45.5173 27.067 41.3916 25.5739 41.2726 23.0369C41.2103 20.9856 41.1716 18.9306 41.6563 16.7921Z" fill="black"/>
<path d="M53.3065 28.4803C55.3929 25.8999 58.1974 24.9962 57.6319 31.0851C57.3083 32.3771 57.1357 33.3565 56.1668 34.7585C55.1951 36.4488 51.426 37.7587 51.8414 32.5545C51.8701 31.0314 52.5438 29.7399 53.3065 28.4803Z" fill="black"/>
<path d="M36.9444 30.0392C36.3159 30.0567 35.7085 30.4105 35.1329 31.2185C34.9458 31.4323 34.7205 31.685 34.4674 31.949C35.236 31.5296 36.0972 31.3089 36.9727 31.3071C37.745 31.308 38.5075 31.4791 39.2061 31.8083C39.9046 32.1376 40.522 32.6168 41.0142 33.2119C39.6327 31.4075 38.2437 30.0033 36.9444 30.0392V30.0392ZM32.8081 33.3697C32.3444 33.6722 31.847 33.9119 31.3307 34.0238C27.2082 35.5529 22.931 43.8605 31.1214 42.9736C31.8766 42.8601 33.3755 42.9995 35.2248 43.3128L35.4962 41.5968C34.4071 41.2778 33.4506 40.6146 32.77 39.7066C32.0893 38.7985 31.721 37.6944 31.7202 36.5596C31.7226 35.4056 32.1049 34.2846 32.8081 33.3697V33.3697ZM41.2698 33.5502C41.8893 34.4316 42.2227 35.4822 42.2249 36.5596C42.2239 37.7281 41.8332 38.8629 41.1147 39.7845C40.3961 40.706 39.3908 41.3616 38.2578 41.6476L37.9115 43.8384C39.603 44.2075 41.4075 44.6665 43.121 45.1777C51.3231 48.4175 50.8047 43.0542 46.2605 40.1017C44.7507 38.7868 43.0211 35.8974 41.2698 33.5502V33.5502Z" fill="black"/>
<path d="M21.401 20.5378C20.758 20.5356 20.0602 21.3436 19.3307 23.5378C19.1279 24.9166 19.0092 26.2752 19.54 27.4784C19.5562 27.54 19.574 27.5995 19.5927 27.658C21.3795 26.9202 22.7746 25.6709 23.791 23.9273C23.1595 22.2666 22.3388 20.5409 21.401 20.5378V20.5378ZM23.9517 28.1151C23.4395 28.6914 22.8829 29.1286 22.2709 29.4312C22.9652 29.3018 23.605 28.8499 23.9517 28.1151Z" fill="black" stroke="black" stroke-width="0.4181"/>
<path d="M14.5864 6.44043L14.7815 8.27147L11.2749 8.70401L12.8102 21.484C14.7118 31.3193 23.9062 30.0608 25.2039 21.171L26.6154 8.95571L23.0939 8.52018L23.2966 6.69213L27.8445 7.25578L26.2411 21.2453C25.2211 27.286 21.7583 29.3169 19.6942 29.4442C18.8563 37.7551 12.3235 38.027 11.1519 41.1381C8.50791 48.8772 14.9184 54.692 23.4409 53.8179C23.9812 53.7625 27.2183 53.609 30.4187 52.1801C33.588 50.7653 35.8267 49.2146 36.3164 40.2787C35.7078 40.1316 35.1081 39.8411 34.5898 39.338C34.146 38.9115 33.837 38.4115 33.6664 37.8732C33.4852 37.4161 33.3571 36.9619 33.4906 35.936C33.6139 35.2062 33.9271 34.3766 34.7822 33.622C35.289 33.1819 35.9583 32.8451 36.9916 32.7728C37.9343 32.7687 38.6704 33.0909 39.2945 33.5902C39.7142 33.916 40.0202 34.2931 40.2222 34.717C40.499 35.2583 40.7403 35.8352 40.6741 36.7215C40.6437 37.5933 40.3583 38.43 39.7452 39.0992C39.1419 39.8186 38.3177 40.2561 37.3572 40.3435C37.1074 49.3104 34.5323 53.7922 23.4985 54.8514C12.7488 55.8448 7.62678 48.0269 10.1493 40.8604C11.2904 37.3208 18.3938 36.506 18.6288 29.4451C14.653 29.1157 12.285 25.1662 11.7712 21.5659L10.0305 7.00248L14.5864 6.44043Z" fill="black" stroke="white" stroke-width="0.0150036"/>
</svg>
